<mxfile host="app.diagrams.net" agent="Mozilla/5.0 (Windows NT 10.0; Win64; x64) AppleWebKit/537.36 (KHTML, like Gecko) Chrome/135.0.0.0 Safari/537.36 OPR/120.0.0.0" version="26.0.16">
  <diagram name="Página-1" id="ybKaZ7MQXCM0tPhRaOxz">
    <mxGraphModel dx="1079" dy="438" grid="1" gridSize="10" guides="1" tooltips="1" connect="1" arrows="1" fold="1" page="1" pageScale="1" pageWidth="850" pageHeight="1100" math="0" shadow="0">
      <root>
        <mxCell id="0" />
        <mxCell id="1" parent="0" />
        <mxCell id="vUWhtkJgjT2QCS8tpEmu-122" style="edgeStyle=orthogonalEdgeStyle;rounded=0;orthogonalLoop=1;jettySize=auto;html=1;entryX=0.609;entryY=0.021;entryDx=0;entryDy=0;entryPerimeter=0;" edge="1" parent="1" source="vUWhtkJgjT2QCS8tpEmu-1" target="vUWhtkJgjT2QCS8tpEmu-9">
          <mxGeometry relative="1" as="geometry">
            <Array as="points">
              <mxPoint x="517" y="380" />
              <mxPoint x="517" y="380" />
            </Array>
          </mxGeometry>
        </mxCell>
        <mxCell id="vUWhtkJgjT2QCS8tpEmu-129" style="edgeStyle=orthogonalEdgeStyle;rounded=0;orthogonalLoop=1;jettySize=auto;html=1;exitX=0.841;exitY=0.99;exitDx=0;exitDy=0;exitPerimeter=0;entryX=0.827;entryY=0.05;entryDx=0;entryDy=0;entryPerimeter=0;" edge="1" parent="1" source="vUWhtkJgjT2QCS8tpEmu-1" target="vUWhtkJgjT2QCS8tpEmu-9">
          <mxGeometry relative="1" as="geometry">
            <mxPoint x="540" y="450" as="targetPoint" />
            <Array as="points">
              <mxPoint x="540" y="292" />
            </Array>
          </mxGeometry>
        </mxCell>
        <mxCell id="vUWhtkJgjT2QCS8tpEmu-1" value="Portal de Servicios/SIGA Finaciero" style="rounded=1;whiteSpace=wrap;arcSize=50;strokeWidth=2;fillColor=#FFE599;" vertex="1" parent="1">
          <mxGeometry x="425" y="243.5" width="145" height="49" as="geometry" />
        </mxCell>
        <mxCell id="vUWhtkJgjT2QCS8tpEmu-13" style="edgeStyle=orthogonalEdgeStyle;rounded=0;orthogonalLoop=1;jettySize=auto;html=1;exitX=0.75;exitY=1;exitDx=0;exitDy=0;entryX=0;entryY=0.25;entryDx=0;entryDy=0;" edge="1" parent="1" source="vUWhtkJgjT2QCS8tpEmu-3" target="vUWhtkJgjT2QCS8tpEmu-1">
          <mxGeometry relative="1" as="geometry">
            <mxPoint x="170" y="105" as="sourcePoint" />
            <mxPoint x="441" y="100" as="targetPoint" />
            <Array as="points">
              <mxPoint x="143" y="256" />
            </Array>
          </mxGeometry>
        </mxCell>
        <mxCell id="vUWhtkJgjT2QCS8tpEmu-26" style="edgeStyle=orthogonalEdgeStyle;rounded=0;orthogonalLoop=1;jettySize=auto;html=1;entryX=0;entryY=0.75;entryDx=0;entryDy=0;" edge="1" parent="1" source="vUWhtkJgjT2QCS8tpEmu-3" target="vUWhtkJgjT2QCS8tpEmu-1">
          <mxGeometry relative="1" as="geometry">
            <mxPoint x="115" y="270" as="targetPoint" />
            <Array as="points">
              <mxPoint x="130" y="280" />
            </Array>
          </mxGeometry>
        </mxCell>
        <mxCell id="vUWhtkJgjT2QCS8tpEmu-30" style="edgeStyle=orthogonalEdgeStyle;rounded=0;orthogonalLoop=1;jettySize=auto;html=1;entryX=0;entryY=0.5;entryDx=0;entryDy=0;" edge="1" parent="1" target="vUWhtkJgjT2QCS8tpEmu-5">
          <mxGeometry relative="1" as="geometry">
            <mxPoint x="170" y="99.5" as="sourcePoint" />
            <mxPoint x="400" y="99.5" as="targetPoint" />
          </mxGeometry>
        </mxCell>
        <mxCell id="vUWhtkJgjT2QCS8tpEmu-3" value="Unidad Solicitante" style="rounded=0;whiteSpace=wrap;html=1;fillColor=#CCFFFF;" vertex="1" parent="1">
          <mxGeometry x="60" y="80" width="110" height="60" as="geometry" />
        </mxCell>
        <mxCell id="vUWhtkJgjT2QCS8tpEmu-132" style="edgeStyle=orthogonalEdgeStyle;rounded=0;orthogonalLoop=1;jettySize=auto;html=1;entryX=0.25;entryY=1;entryDx=0;entryDy=0;" edge="1" parent="1" source="vUWhtkJgjT2QCS8tpEmu-4" target="vUWhtkJgjT2QCS8tpEmu-9">
          <mxGeometry relative="1" as="geometry">
            <Array as="points">
              <mxPoint x="478" y="640" />
            </Array>
          </mxGeometry>
        </mxCell>
        <mxCell id="vUWhtkJgjT2QCS8tpEmu-133" value="Envía Lineamientos" style="edgeLabel;html=1;align=center;verticalAlign=middle;resizable=0;points=[];" vertex="1" connectable="0" parent="vUWhtkJgjT2QCS8tpEmu-132">
          <mxGeometry x="-0.4655" y="-4" relative="1" as="geometry">
            <mxPoint x="1" y="-24" as="offset" />
          </mxGeometry>
        </mxCell>
        <mxCell id="vUWhtkJgjT2QCS8tpEmu-4" value="Comité/Subcomición&amp;nbsp; de Adquisiciones" style="rounded=0;whiteSpace=wrap;html=1;fillColor=#CCFFFF;" vertex="1" parent="1">
          <mxGeometry x="150" y="630" width="120" height="40" as="geometry" />
        </mxCell>
        <mxCell id="vUWhtkJgjT2QCS8tpEmu-34" style="edgeStyle=orthogonalEdgeStyle;rounded=0;orthogonalLoop=1;jettySize=auto;html=1;" edge="1" parent="1" source="vUWhtkJgjT2QCS8tpEmu-5" target="vUWhtkJgjT2QCS8tpEmu-3">
          <mxGeometry relative="1" as="geometry">
            <Array as="points">
              <mxPoint x="340" y="110" />
              <mxPoint x="340" y="110" />
            </Array>
          </mxGeometry>
        </mxCell>
        <mxCell id="vUWhtkJgjT2QCS8tpEmu-5" value="Decano o director de Unidad" style="rounded=0;whiteSpace=wrap;html=1;fillColor=#CCFFFF;" vertex="1" parent="1">
          <mxGeometry x="440" y="80" width="100" height="40" as="geometry" />
        </mxCell>
        <mxCell id="vUWhtkJgjT2QCS8tpEmu-42" style="edgeStyle=orthogonalEdgeStyle;rounded=0;orthogonalLoop=1;jettySize=auto;html=1;entryX=0.164;entryY=1.083;entryDx=0;entryDy=0;entryPerimeter=0;" edge="1" parent="1" source="vUWhtkJgjT2QCS8tpEmu-6" target="vUWhtkJgjT2QCS8tpEmu-3">
          <mxGeometry relative="1" as="geometry">
            <mxPoint x="80" y="150" as="targetPoint" />
            <Array as="points">
              <mxPoint x="78" y="420" />
            </Array>
          </mxGeometry>
        </mxCell>
        <mxCell id="vUWhtkJgjT2QCS8tpEmu-93" value="Entrega bienes o servicios" style="edgeLabel;html=1;align=center;verticalAlign=middle;resizable=0;points=[];" vertex="1" connectable="0" parent="vUWhtkJgjT2QCS8tpEmu-42">
          <mxGeometry x="-0.122" y="-2" relative="1" as="geometry">
            <mxPoint x="-2" as="offset" />
          </mxGeometry>
        </mxCell>
        <mxCell id="vUWhtkJgjT2QCS8tpEmu-116" style="edgeStyle=orthogonalEdgeStyle;rounded=0;orthogonalLoop=1;jettySize=auto;html=1;exitX=1;exitY=0.75;exitDx=0;exitDy=0;entryX=0.027;entryY=0.864;entryDx=0;entryDy=0;entryPerimeter=0;" edge="1" parent="1" source="vUWhtkJgjT2QCS8tpEmu-6" target="vUWhtkJgjT2QCS8tpEmu-9">
          <mxGeometry relative="1" as="geometry">
            <Array as="points">
              <mxPoint x="140" y="515" />
            </Array>
          </mxGeometry>
        </mxCell>
        <mxCell id="vUWhtkJgjT2QCS8tpEmu-6" value="Proveedores" style="rounded=0;whiteSpace=wrap;html=1;fillColor=#CCFFFF;" vertex="1" parent="1">
          <mxGeometry x="40" y="469" width="100" height="55.5" as="geometry" />
        </mxCell>
        <mxCell id="vUWhtkJgjT2QCS8tpEmu-37" style="edgeStyle=orthogonalEdgeStyle;rounded=0;orthogonalLoop=1;jettySize=auto;html=1;exitX=1;exitY=0.25;exitDx=0;exitDy=0;entryX=0;entryY=0.25;entryDx=0;entryDy=0;" edge="1" parent="1" source="vUWhtkJgjT2QCS8tpEmu-9">
          <mxGeometry relative="1" as="geometry">
            <mxPoint x="510" y="489" as="sourcePoint" />
            <mxPoint x="710" y="491.75" as="targetPoint" />
            <Array as="points">
              <mxPoint x="510" y="492" />
            </Array>
          </mxGeometry>
        </mxCell>
        <mxCell id="vUWhtkJgjT2QCS8tpEmu-106" style="edgeStyle=orthogonalEdgeStyle;rounded=0;orthogonalLoop=1;jettySize=auto;html=1;entryX=1;entryY=0;entryDx=0;entryDy=0;" edge="1" parent="1" source="vUWhtkJgjT2QCS8tpEmu-9" target="vUWhtkJgjT2QCS8tpEmu-6">
          <mxGeometry relative="1" as="geometry">
            <Array as="points">
              <mxPoint x="260" y="469" />
              <mxPoint x="260" y="469" />
            </Array>
          </mxGeometry>
        </mxCell>
        <mxCell id="vUWhtkJgjT2QCS8tpEmu-107" value="Solicita cotización" style="edgeLabel;html=1;align=center;verticalAlign=middle;resizable=0;points=[];" vertex="1" connectable="0" parent="vUWhtkJgjT2QCS8tpEmu-106">
          <mxGeometry x="0.1555" y="-2" relative="1" as="geometry">
            <mxPoint x="20" y="-7" as="offset" />
          </mxGeometry>
        </mxCell>
        <mxCell id="vUWhtkJgjT2QCS8tpEmu-110" style="edgeStyle=orthogonalEdgeStyle;rounded=0;orthogonalLoop=1;jettySize=auto;html=1;exitX=0;exitY=0.5;exitDx=0;exitDy=0;" edge="1" parent="1" source="vUWhtkJgjT2QCS8tpEmu-9" target="vUWhtkJgjT2QCS8tpEmu-6">
          <mxGeometry relative="1" as="geometry">
            <Array as="points">
              <mxPoint x="270" y="490" />
              <mxPoint x="270" y="490" />
            </Array>
          </mxGeometry>
        </mxCell>
        <mxCell id="vUWhtkJgjT2QCS8tpEmu-112" style="edgeStyle=orthogonalEdgeStyle;rounded=0;orthogonalLoop=1;jettySize=auto;html=1;exitX=0.75;exitY=0;exitDx=0;exitDy=0;entryX=0.379;entryY=1;entryDx=0;entryDy=0;entryPerimeter=0;" edge="1" parent="1" target="vUWhtkJgjT2QCS8tpEmu-1">
          <mxGeometry relative="1" as="geometry">
            <mxPoint x="460" y="460" as="sourcePoint" />
            <mxPoint x="475" y="292.5" as="targetPoint" />
            <Array as="points">
              <mxPoint x="480" y="460" />
            </Array>
          </mxGeometry>
        </mxCell>
        <mxCell id="vUWhtkJgjT2QCS8tpEmu-38" style="edgeStyle=orthogonalEdgeStyle;rounded=0;orthogonalLoop=1;jettySize=auto;html=1;exitX=0;exitY=0.75;exitDx=0;exitDy=0;" edge="1" parent="1" source="vUWhtkJgjT2QCS8tpEmu-10" target="vUWhtkJgjT2QCS8tpEmu-9">
          <mxGeometry relative="1" as="geometry">
            <Array as="points">
              <mxPoint x="710" y="520" />
            </Array>
          </mxGeometry>
        </mxCell>
        <mxCell id="vUWhtkJgjT2QCS8tpEmu-10" value="INSPEKTOR" style="rounded=1;whiteSpace=wrap;arcSize=50;strokeWidth=2;fillColor=#FFE599;" vertex="1" parent="1">
          <mxGeometry x="710" y="485.5" width="131" height="39" as="geometry" />
        </mxCell>
        <mxCell id="vUWhtkJgjT2QCS8tpEmu-14" value="Radica la Solicitudes y Soportes" style="edgeLabel;html=1;align=center;verticalAlign=middle;resizable=0;points=[];" vertex="1" connectable="0" parent="1">
          <mxGeometry x="270.00038806882935" y="249.99658529057922" as="geometry">
            <mxPoint x="-1" y="-2" as="offset" />
          </mxGeometry>
        </mxCell>
        <mxCell id="vUWhtkJgjT2QCS8tpEmu-17" value="Resultados de Validación" style="edgeLabel;html=1;align=center;verticalAlign=middle;resizable=0;points=[];" vertex="1" connectable="0" parent="1">
          <mxGeometry x="200.00038806882935" y="369.9965852905792" as="geometry">
            <mxPoint x="403" y="141" as="offset" />
          </mxGeometry>
        </mxCell>
        <mxCell id="vUWhtkJgjT2QCS8tpEmu-21" value="Válida proveedores" style="edgeLabel;html=1;align=center;verticalAlign=middle;resizable=0;points=[];" vertex="1" connectable="0" parent="1">
          <mxGeometry x="230.00038806882935" y="339.9965852905792" as="geometry">
            <mxPoint x="403" y="141" as="offset" />
          </mxGeometry>
        </mxCell>
        <mxCell id="vUWhtkJgjT2QCS8tpEmu-23" value="Registra Conformidad" style="edgeLabel;html=1;align=center;verticalAlign=middle;resizable=0;points=[];" vertex="1" connectable="0" parent="1">
          <mxGeometry x="260.00038806882935" y="267.9965852905792" as="geometry">
            <mxPoint x="-1" y="-2" as="offset" />
          </mxGeometry>
        </mxCell>
        <mxCell id="vUWhtkJgjT2QCS8tpEmu-29" value="Autoriza o rechaza la solicitud" style="edgeLabel;html=1;align=center;verticalAlign=middle;resizable=0;points=[];" vertex="1" connectable="0" parent="1">
          <mxGeometry x="575.0003880688294" y="179.9965852905792" as="geometry">
            <mxPoint x="-1" y="-2" as="offset" />
          </mxGeometry>
        </mxCell>
        <mxCell id="vUWhtkJgjT2QCS8tpEmu-32" value="Informa sus necesidades" style="text;html=1;align=center;verticalAlign=middle;resizable=0;points=[];autosize=1;strokeColor=none;fillColor=none;" vertex="1" parent="1">
          <mxGeometry x="190" y="70" width="160" height="30" as="geometry" />
        </mxCell>
        <mxCell id="vUWhtkJgjT2QCS8tpEmu-35" value="Avala o condiciona" style="text;html=1;align=center;verticalAlign=middle;resizable=0;points=[];autosize=1;strokeColor=none;fillColor=none;" vertex="1" parent="1">
          <mxGeometry x="210" y="110" width="120" height="30" as="geometry" />
        </mxCell>
        <mxCell id="vUWhtkJgjT2QCS8tpEmu-40" value="&lt;span style=&quot;font-size: 11px;&quot;&gt;Registra ordenes&lt;/span&gt;" style="text;whiteSpace=wrap;html=1;rotation=270;" vertex="1" parent="1">
          <mxGeometry x="360" y="330" width="170" height="20" as="geometry" />
        </mxCell>
        <mxCell id="vUWhtkJgjT2QCS8tpEmu-102" style="edgeStyle=orthogonalEdgeStyle;rounded=0;orthogonalLoop=1;jettySize=auto;html=1;entryX=0.455;entryY=0.01;entryDx=0;entryDy=0;entryPerimeter=0;" edge="1" parent="1">
          <mxGeometry relative="1" as="geometry">
            <mxPoint x="490" y="119.51" as="sourcePoint" />
            <mxPoint x="490.9749999999999" y="243.5" as="targetPoint" />
            <Array as="points">
              <mxPoint x="491" y="120" />
            </Array>
          </mxGeometry>
        </mxCell>
        <mxCell id="vUWhtkJgjT2QCS8tpEmu-103" style="edgeStyle=orthogonalEdgeStyle;rounded=0;orthogonalLoop=1;jettySize=auto;html=1;entryX=0.918;entryY=1;entryDx=0;entryDy=0;entryPerimeter=0;" edge="1" parent="1" source="vUWhtkJgjT2QCS8tpEmu-1" target="vUWhtkJgjT2QCS8tpEmu-3">
          <mxGeometry relative="1" as="geometry">
            <Array as="points">
              <mxPoint x="450" y="220" />
              <mxPoint x="161" y="220" />
            </Array>
          </mxGeometry>
        </mxCell>
        <mxCell id="vUWhtkJgjT2QCS8tpEmu-104" value="Notifica cambios" style="edgeLabel;html=1;align=center;verticalAlign=middle;resizable=0;points=[];" vertex="1" connectable="0" parent="vUWhtkJgjT2QCS8tpEmu-103">
          <mxGeometry x="-0.2484" y="-2" relative="1" as="geometry">
            <mxPoint x="-25" y="-8" as="offset" />
          </mxGeometry>
        </mxCell>
        <mxCell id="vUWhtkJgjT2QCS8tpEmu-109" value="Envía órdenes de compra/contratos" style="edgeLabel;html=1;align=center;verticalAlign=middle;resizable=0;points=[];" vertex="1" connectable="0" parent="1">
          <mxGeometry x="270.00126757787575" y="480.00375040161134" as="geometry" />
        </mxCell>
        <mxCell id="vUWhtkJgjT2QCS8tpEmu-113" value="&lt;span style=&quot;font-size: 11px;&quot;&gt;Carga Contratacióm&lt;/span&gt;" style="text;whiteSpace=wrap;html=1;rotation=270;" vertex="1" parent="1">
          <mxGeometry x="380" y="330" width="170" height="20" as="geometry" />
        </mxCell>
        <mxCell id="vUWhtkJgjT2QCS8tpEmu-115" value="Entrega cotizaciones/informes" style="edgeLabel;html=1;align=center;verticalAlign=middle;resizable=0;points=[];" vertex="1" connectable="0" parent="1">
          <mxGeometry x="270.00126757787575" y="505.00375040161134" as="geometry" />
        </mxCell>
        <mxCell id="vUWhtkJgjT2QCS8tpEmu-134" style="edgeStyle=orthogonalEdgeStyle;rounded=0;orthogonalLoop=1;jettySize=auto;html=1;exitX=0.75;exitY=1;exitDx=0;exitDy=0;entryX=1;entryY=0.75;entryDx=0;entryDy=0;" edge="1" parent="1" source="vUWhtkJgjT2QCS8tpEmu-9" target="vUWhtkJgjT2QCS8tpEmu-4">
          <mxGeometry relative="1" as="geometry" />
        </mxCell>
        <mxCell id="vUWhtkJgjT2QCS8tpEmu-9" value="Jefatura de Adquiciones" style="rounded=0;whiteSpace=wrap;html=1;fillColor=#CCFFFF;" vertex="1" parent="1">
          <mxGeometry x="450" y="454.5" width="110" height="70" as="geometry" />
        </mxCell>
        <mxCell id="vUWhtkJgjT2QCS8tpEmu-119" style="edgeStyle=orthogonalEdgeStyle;rounded=0;orthogonalLoop=1;jettySize=auto;html=1;entryX=0.25;entryY=1;entryDx=0;entryDy=0;" edge="1" parent="1" source="vUWhtkJgjT2QCS8tpEmu-9" target="vUWhtkJgjT2QCS8tpEmu-1">
          <mxGeometry relative="1" as="geometry">
            <Array as="points">
              <mxPoint x="461" y="410" />
              <mxPoint x="461" y="410" />
            </Array>
          </mxGeometry>
        </mxCell>
        <mxCell id="vUWhtkJgjT2QCS8tpEmu-123" value="&lt;span style=&quot;font-size: 11px;&quot;&gt;Envía Solicitudes&lt;/span&gt;" style="text;whiteSpace=wrap;html=1;rotation=270;" vertex="1" parent="1">
          <mxGeometry x="412.5" y="330" width="170" height="20" as="geometry" />
        </mxCell>
        <mxCell id="vUWhtkJgjT2QCS8tpEmu-127" value="&lt;span style=&quot;font-size: 11px;&quot;&gt;Estaods Finacieros&lt;/span&gt;" style="text;whiteSpace=wrap;html=1;rotation=270;" vertex="1" parent="1">
          <mxGeometry x="440" y="330" width="170" height="20" as="geometry" />
        </mxCell>
        <mxCell id="vUWhtkJgjT2QCS8tpEmu-135" value="Envía Planes Anuales e Informes" style="edgeLabel;html=1;align=center;verticalAlign=middle;resizable=0;points=[];" vertex="1" connectable="0" parent="1">
          <mxGeometry x="400" y="650" as="geometry" />
        </mxCell>
      </root>
    </mxGraphModel>
  </diagram>
</mxfile>
